<?xml version="1.0" encoding="UTF-8"?>
<svg width="745px" height="497px" viewBox="0 0 745 497" version="1.1" xmlns="http://www.w3.org/2000/svg" xmlns:xlink="http://www.w3.org/1999/xlink">
    <!-- Generator: Sketch 62 (91390) - https://sketch.com -->
    <title>logo-centre-esthetique-estuaire</title>
    <desc>Created with Sketch.</desc>
    <g id="Page-1" stroke="none" stroke-width="1" fill="none" fill-rule="evenodd">
        <g id="logo-centre-esthetique-estuaire-reverse" transform="translate(-180.000000, -176.000000)">
            <g id="logo-centre-esthetique-estuaire" transform="translate(180.000000, 176.000000)">
                <rect id="Fond" stroke="#213251" stroke-width="2" fill="#213251" x="1" y="1" width="743" height="495"></rect>
                <g id="Silhouette" transform="translate(130.000000, 112.000000)" fill="#FFFFFF">
                    <g id="Texte" transform="translate(107.000000, 5.000000)" fill-rule="nonzero">
                        <path d="M16.95,62.675 C20.95,62.675 24.05,61.8875 26.25,60.3125 C28.45,58.7375 30,56.5375 30.9,53.7125 C31.8,50.8875 32.25,47.625 32.25,43.925 L32.25,43.925 L32.25,39.425 L24.225,39.425 L24.225,43.925 C24.225,46.325 24.1,48.425 23.85,50.225 C23.6,52.025 22.975,53.4375 21.975,54.4625 C20.975,55.4875 19.325,56 17.025,56 C15.075,56 13.525,55.625 12.375,54.875 C11.225,54.125 10.4,52.8625 9.9,51.0875 C9.4,49.3125 9.15,46.9 9.15,43.85 L9.15,43.85 L9.15,19.775 C9.15,17.275 9.3125,15.0875 9.6375,13.2125 C9.9625,11.3375 10.675,9.8875 11.775,8.8625 C12.875,7.8375 14.625,7.325 17.025,7.325 C19.375,7.325 21.05,7.8 22.05,8.75 C23.05,9.7 23.6625,11.0375 23.8875,12.7625 C24.1125,14.4875 24.225,16.475 24.225,18.725 L24.225,18.725 L24.225,23 L32.25,23 L32.25,18.2 C32.25,14.55 31.7625,11.425 30.7875,8.825 C29.8125,6.225 28.2125,4.225 25.9875,2.825 C23.7625,1.425 20.75,0.725 16.95,0.725 C12.65,0.725 9.3125,1.5625 6.9375,3.2375 C4.5625,4.9125 2.9125,7.275 1.9875,10.325 C1.0625,13.375 0.6,16.95 0.6,21.05 L0.6,21.05 L0.6,42.5 C0.6,46.25 1.0625,49.65 1.9875,52.7 C2.9125,55.75 4.5625,58.175 6.9375,59.975 C9.3125,61.775 12.65,62.675 16.95,62.675 Z M64.05,62 L64.05,55.925 L48.825,55.925 L48.825,33.65 L61.05,33.65 L61.05,27.65 L48.825,27.65 L48.825,7.55 L63.9,7.55 L63.9,1.25 L40.35,1.25 L40.35,62 L64.05,62 Z M78.075,62 L78.075,20.525 L95.55,62 L100.95,62 L100.95,1.25 L93.9,1.25 L93.9,41.6 L76.65,1.25 L70.875,1.25 L70.875,62 L78.075,62 Z M125.625,62 L125.625,7.55 L135.6,7.55 L135.6,1.25 L106.875,1.25 L106.875,7.55 L117.15,7.55 L117.15,62 L125.625,62 Z M149.925,62 L149.925,33.5 L156.525,33.5 L164.475,62 L172.65,62 L164.025,31.55 C165.825,30.95 167.275,29.9875 168.375,28.6625 C169.475,27.3375 170.275,25.7125 170.775,23.7875 C171.275,21.8625 171.525,19.725 171.525,17.375 C171.525,13.525 170.8875,10.4125 169.6125,8.0375 C168.3375,5.6625 166.375,3.9375 163.725,2.8625 C161.075,1.7875 157.725,1.25 153.675,1.25 L153.675,1.25 L141.45,1.25 L141.45,62 L149.925,62 Z M153.15,27.425 L149.925,27.425 L149.925,7.325 L153.675,7.325 C157.525,7.325 160.1,8.1125 161.4,9.6875 C162.7,11.2625 163.35,13.825 163.35,17.375 C163.35,19.975 163,22 162.3,23.45 C161.6,24.9 160.5,25.925 159,26.525 C157.5,27.125 155.55,27.425 153.15,27.425 L153.15,27.425 Z M204.075,62 L204.075,55.925 L188.85,55.925 L188.85,33.65 L201.075,33.65 L201.075,27.65 L188.85,27.65 L188.85,7.55 L203.925,7.55 L203.925,1.25 L180.375,1.25 L180.375,62 L204.075,62 Z M25.425,162 L25.425,155.925 L10.2,155.925 L10.2,133.65 L22.425,133.65 L22.425,127.65 L10.2,127.65 L10.2,107.55 L25.275,107.55 L25.275,101.25 L1.725,101.25 L1.725,162 L25.425,162 Z M46.575,162.675 C49.425,162.675 51.9375,162.1 54.1125,160.95 C56.2875,159.8 58,158.1375 59.25,155.9625 C60.5,153.7875 61.125,151.2 61.125,148.2 C61.125,144.4 60.25,141.1125 58.5,138.3375 C56.75,135.5625 54.725,133.175 52.425,131.175 L52.425,131.175 L42.15,122.175 C40.75,120.925 39.7375,119.7 39.1125,118.5 C38.4875,117.3 38.175,115.775 38.175,113.925 C38.175,111.725 38.7625,110.0625 39.9375,108.9375 C41.1125,107.8125 42.75,107.25 44.85,107.25 C46.95,107.25 48.5625,107.7625 49.6875,108.7875 C50.8125,109.8125 51.6,111.1625 52.05,112.8375 C52.5,114.5125 52.8,116.35 52.95,118.35 L52.95,118.35 L60.15,116.4 C59.9,113.75 59.4125,111.4375 58.6875,109.4625 C57.9625,107.4875 56.9875,105.85 55.7625,104.55 C54.5375,103.25 53.0125,102.2875 51.1875,101.6625 C49.3625,101.0375 47.25,100.725 44.85,100.725 C40.45,100.725 36.975,101.95 34.425,104.4 C31.875,106.85 30.6,110.3 30.6,114.75 C30.6,117.8 31.075,120.3625 32.025,122.4375 C32.975,124.5125 34.45,126.425 36.45,128.175 L36.45,128.175 L46.65,137.175 C48.55,138.875 50.125,140.5625 51.375,142.2375 C52.625,143.9125 53.25,146.125 53.25,148.875 C53.25,151.175 52.6875,152.9375 51.5625,154.1625 C50.4375,155.3875 48.775,156 46.575,156 C44.425,156 42.75,155.3625 41.55,154.0875 C40.35,152.8125 39.4875,151.175 38.9625,149.175 C38.4375,147.175 38.1,145.1 37.95,142.95 L37.95,142.95 L30.45,144.975 C30.65,148.475 31.35,151.55 32.55,154.2 C33.75,156.85 35.5125,158.925 37.8375,160.425 C40.1625,161.925 43.075,162.675 46.575,162.675 Z M82.875,162 L82.875,107.55 L92.85,107.55 L92.85,101.25 L64.125,101.25 L64.125,107.55 L74.4,107.55 L74.4,162 L82.875,162 Z M107.175,162 L107.175,133.575 L122.775,133.575 L122.775,162 L131.25,162 L131.25,101.25 L122.775,101.25 L122.775,127.5 L107.175,127.5 L107.175,101.25 L98.7,101.25 L98.7,162 L107.175,162 Z M154.8,97.65 L163.2,82.8 L155.175,82.8 L150.75,97.65 L154.8,97.65 Z M164.475,162 L164.475,155.925 L149.25,155.925 L149.25,133.65 L161.475,133.65 L161.475,127.65 L149.25,127.65 L149.25,107.55 L164.325,107.55 L164.325,101.25 L140.775,101.25 L140.775,162 L164.475,162 Z M186.45,162 L186.45,107.55 L196.425,107.55 L196.425,101.25 L167.7,101.25 L167.7,107.55 L177.975,107.55 L177.975,162 L186.45,162 Z M211.05,162 L211.05,101.25 L202.725,101.25 L202.725,162 L211.05,162 Z M248.775,174.3 L250.125,167.625 C249.525,167.175 248.875,166.6 248.175,165.9 C247.475,165.2 246.775,164.4375 246.075,163.6125 C245.375,162.7875 244.725,162 244.125,161.25 C246.275,160.35 248,159.0375 249.3,157.3125 C250.6,155.5875 251.55,153.5125 252.15,151.0875 C252.75,148.6625 253.05,145.975 253.05,143.025 L253.05,143.025 L253.05,119.925 C253.05,115.925 252.5125,112.5 251.4375,109.65 C250.3625,106.8 248.6125,104.6 246.1875,103.05 C243.7625,101.5 240.5,100.725 236.4,100.725 C232.3,100.725 229.0375,101.4875 226.6125,103.0125 C224.1875,104.5375 222.4375,106.7375 221.3625,109.6125 C220.2875,112.4875 219.75,115.925 219.75,119.925 L219.75,119.925 L219.75,142.95 C219.75,146.95 220.275,150.4375 221.325,153.4125 C222.375,156.3875 224.125,158.675 226.575,160.275 C229.025,161.875 232.3,162.675 236.4,162.675 L236.4,162.675 L237.15,162.675 C237.4,162.675 237.625,162.65 237.825,162.6 C238.775,164 239.8375,165.475 241.0125,167.025 C242.1875,168.575 243.4375,170 244.7625,171.3 C246.0875,172.6 247.425,173.6 248.775,174.3 L248.775,174.3 Z M236.4,156 C234.15,156 232.4375,155.5375 231.2625,154.6125 C230.0875,153.6875 229.3,152.3875 228.9,150.7125 C228.5,149.0375 228.3,147.075 228.3,144.825 L228.3,144.825 L228.3,118.2 C228.3,115.95 228.5,114.0125 228.9,112.3875 C229.3,110.7625 230.0875,109.5125 231.2625,108.6375 C232.4375,107.7625 234.15,107.325 236.4,107.325 C238.7,107.325 240.425,107.7625 241.575,108.6375 C242.725,109.5125 243.5,110.7625 243.9,112.3875 C244.3,114.0125 244.5,115.95 244.5,118.2 L244.5,118.2 L244.5,144.825 C244.5,147.075 244.3,149.0375 243.9,150.7125 C243.5,152.3875 242.725,153.6875 241.575,154.6125 C240.425,155.5375 238.7,156 236.4,156 Z M277.125,162.675 C281.525,162.675 284.8875,161.8 287.2125,160.05 C289.5375,158.3 291.125,155.8375 291.975,152.6625 C292.825,149.4875 293.25,145.775 293.25,141.525 L293.25,141.525 L293.25,101.25 L285.225,101.25 L285.225,141.9 C285.225,144.5 285.05,146.875 284.7,149.025 C284.35,151.175 283.6,152.875 282.45,154.125 C281.3,155.375 279.525,156 277.125,156 C274.775,156 273.0125,155.375 271.8375,154.125 C270.6625,152.875 269.9,151.175 269.55,149.025 C269.2,146.875 269.025,144.5 269.025,141.9 L269.025,141.9 L269.025,101.25 L260.925,101.25 L260.925,141.525 C260.925,145.775 261.35,149.4875 262.2,152.6625 C263.05,155.8375 264.65,158.3 267,160.05 C269.35,161.8 272.725,162.675 277.125,162.675 Z M325.875,162 L325.875,155.925 L310.65,155.925 L310.65,133.65 L322.875,133.65 L322.875,127.65 L310.65,127.65 L310.65,107.55 L325.725,107.55 L325.725,101.25 L302.175,101.25 L302.175,162 L325.875,162 Z M15.6,262 C19.85,262 23.2375,261.2375 25.7625,259.7125 C28.2875,258.1875 30.1125,255.95 31.2375,253 C32.3625,250.05 32.925,246.425 32.925,242.125 L32.925,242.125 L32.925,219.775 C32.925,215.675 32.3625,212.25 31.2375,209.5 C30.1125,206.75 28.2375,204.6875 25.6125,203.3125 C22.9875,201.9375 19.425,201.25 14.925,201.25 L14.925,201.25 L1.725,201.25 L1.725,262 L15.6,262 Z M15,255.925 L10.2,255.925 L10.2,207.55 L14.775,207.55 C17.675,207.55 19.8,208 21.15,208.9 C22.5,209.8 23.375,211.225 23.775,213.175 C24.175,215.125 24.375,217.675 24.375,220.825 L24.375,220.825 L24.375,240.55 C24.375,243.8 24.2375,246.575 23.9625,248.875 C23.6875,251.175 22.9,252.925 21.6,254.125 C20.3,255.325 18.1,255.925 15,255.925 L15,255.925 Z M64.95,262 L64.95,255.925 L49.725,255.925 L49.725,233.65 L61.95,233.65 L61.95,227.65 L49.725,227.65 L49.725,207.55 L64.8,207.55 L64.8,201.25 L41.25,201.25 L41.25,262 L64.95,262 Z M112.95,262 L112.95,255.925 L97.425,255.925 L97.425,201.25 L88.95,201.25 L88.95,262 L112.95,262 Z M119.85,221.125 C122.6,220.975 124.525,219.8125 125.625,217.6375 C126.725,215.4625 127.275,212.425 127.275,208.525 L127.275,208.525 L127.275,201.25 L118.5,201.25 L118.5,209.725 L122.475,209.725 C122.475,212.525 122.1875,214.6 121.6125,215.95 C121.0375,217.3 119.975,218.025 118.425,218.125 L118.425,218.125 L119.85,221.125 Z M158.025,262 L158.025,255.925 L142.8,255.925 L142.8,233.65 L155.025,233.65 L155.025,227.65 L142.8,227.65 L142.8,207.55 L157.875,207.55 L157.875,201.25 L134.325,201.25 L134.325,262 L158.025,262 Z M179.175,262.675 C182.025,262.675 184.5375,262.1 186.7125,260.95 C188.8875,259.8 190.6,258.1375 191.85,255.9625 C193.1,253.7875 193.725,251.2 193.725,248.2 C193.725,244.4 192.85,241.1125 191.1,238.3375 C189.35,235.5625 187.325,233.175 185.025,231.175 L185.025,231.175 L174.75,222.175 C173.35,220.925 172.3375,219.7 171.7125,218.5 C171.0875,217.3 170.775,215.775 170.775,213.925 C170.775,211.725 171.3625,210.0625 172.5375,208.9375 C173.7125,207.8125 175.35,207.25 177.45,207.25 C179.55,207.25 181.1625,207.7625 182.2875,208.7875 C183.4125,209.8125 184.2,211.1625 184.65,212.8375 C185.1,214.5125 185.4,216.35 185.55,218.35 L185.55,218.35 L192.75,216.4 C192.5,213.75 192.0125,211.4375 191.2875,209.4625 C190.5625,207.4875 189.5875,205.85 188.3625,204.55 C187.1375,203.25 185.6125,202.2875 183.7875,201.6625 C181.9625,201.0375 179.85,200.725 177.45,200.725 C173.05,200.725 169.575,201.95 167.025,204.4 C164.475,206.85 163.2,210.3 163.2,214.75 C163.2,217.8 163.675,220.3625 164.625,222.4375 C165.575,224.5125 167.05,226.425 169.05,228.175 L169.05,228.175 L179.25,237.175 C181.15,238.875 182.725,240.5625 183.975,242.2375 C185.225,243.9125 185.85,246.125 185.85,248.875 C185.85,251.175 185.2875,252.9375 184.1625,254.1625 C183.0375,255.3875 181.375,256 179.175,256 C177.025,256 175.35,255.3625 174.15,254.0875 C172.95,252.8125 172.0875,251.175 171.5625,249.175 C171.0375,247.175 170.7,245.1 170.55,242.95 L170.55,242.95 L163.05,244.975 C163.25,248.475 163.95,251.55 165.15,254.2 C166.35,256.85 168.1125,258.925 170.4375,260.425 C172.7625,261.925 175.675,262.675 179.175,262.675 Z M215.475,262 L215.475,207.55 L225.45,207.55 L225.45,201.25 L196.725,201.25 L196.725,207.55 L207,207.55 L207,262 L215.475,262 Z M246.975,262.675 C251.375,262.675 254.7375,261.8 257.0625,260.05 C259.3875,258.3 260.975,255.8375 261.825,252.6625 C262.675,249.4875 263.1,245.775 263.1,241.525 L263.1,241.525 L263.1,201.25 L255.075,201.25 L255.075,241.9 C255.075,244.5 254.9,246.875 254.55,249.025 C254.2,251.175 253.45,252.875 252.3,254.125 C251.15,255.375 249.375,256 246.975,256 C244.625,256 242.8625,255.375 241.6875,254.125 C240.5125,252.875 239.75,251.175 239.4,249.025 C239.05,246.875 238.875,244.5 238.875,241.9 L238.875,241.9 L238.875,201.25 L230.775,201.25 L230.775,241.525 C230.775,245.775 231.2,249.4875 232.05,252.6625 C232.9,255.8375 234.5,258.3 236.85,260.05 C239.2,261.8 242.575,262.675 246.975,262.675 Z M276.675,262 L279.6,246.7 L291.975,246.7 L294.75,262 L302.775,262 L289.8,201.25 L281.625,201.25 L268.725,262 L276.675,262 Z M290.85,240.625 L280.725,240.625 L285.75,213.25 L290.85,240.625 Z M317.7,262 L317.7,201.25 L309.375,201.25 L309.375,262 L317.7,262 Z M336,262 L336,233.5 L342.6,233.5 L350.55,262 L358.725,262 L350.1,231.55 C351.9,230.95 353.35,229.9875 354.45,228.6625 C355.55,227.3375 356.35,225.7125 356.85,223.7875 C357.35,221.8625 357.6,219.725 357.6,217.375 C357.6,213.525 356.9625,210.4125 355.6875,208.0375 C354.4125,205.6625 352.45,203.9375 349.8,202.8625 C347.15,201.7875 343.8,201.25 339.75,201.25 L339.75,201.25 L327.525,201.25 L327.525,262 L336,262 Z M339.225,227.425 L336,227.425 L336,207.325 L339.75,207.325 C343.6,207.325 346.175,208.1125 347.475,209.6875 C348.775,211.2625 349.425,213.825 349.425,217.375 C349.425,219.975 349.075,222 348.375,223.45 C347.675,224.9 346.575,225.925 345.075,226.525 C343.575,227.125 341.625,227.425 339.225,227.425 L339.225,227.425 Z M390.15,262 L390.15,255.925 L374.925,255.925 L374.925,233.65 L387.15,233.65 L387.15,227.65 L374.925,227.65 L374.925,207.55 L390,207.55 L390,201.25 L366.45,201.25 L366.45,262 L390.15,262 Z" id="CENTRE-ESTHÉTIQUE-DE-L’ESTUAIRE"></path>
                    </g>
                    <path d="M23.169663,1 C16.9322663,15.9346757 13.813568,33.4324007 13.813568,53.493175 C13.813568,78.4097446 29,108.840137 29,140.5 C29,155.451366 22.3333333,199.242334 9,271.872903 C17.1131087,202.884985 21.169663,160.357809 21.169663,144.291374 C21.169663,112.958543 8,83.2728518 8,53.493175 C8,35.4460825 13.0565543,17.9483575 23.169663,1 Z" stroke="#FFFFFF" stroke-width="2" stroke-linejoin="round" transform="translate(18.500000, 136.436452) rotate(-3.000000) translate(-18.500000, -136.436452) "></path>
                </g>
            </g>
        </g>
    </g>
</svg>